<svg width="24" height="24" viewBox="0 0 24 24" fill="none" xmlns="http://www.w3.org/2000/svg">
<path d="M2.92462 23.6663C2.21166 23.6663 1.60154 23.4127 1.09425 22.9054C0.58697 22.3981 0.332895 21.7876 0.332031 21.0737V2.9256C0.332031 2.21264 0.586105 1.60251 1.09425 1.09523C1.6024 0.587946 2.21253 0.333872 2.92462 0.333008H21.0728C21.7857 0.333008 22.3963 0.587082 22.9044 1.09523C23.4126 1.60338 23.6662 2.2135 23.6654 2.9256V21.0737C23.6654 21.7867 23.4117 22.3973 22.9044 22.9054C22.3972 23.4136 21.7866 23.6672 21.0728 23.6663H2.92462ZM2.92462 21.0737H21.0728V17.1849H17.1839C16.5357 18.0058 15.7636 18.6432 14.8674 19.0969C13.9712 19.5506 13.015 19.7775 11.9987 19.7775C10.9824 19.7775 10.0266 19.5506 9.13129 19.0969C8.23598 18.6432 7.46339 18.0058 6.81351 17.1849H2.92462V21.0737ZM11.9987 17.1849C12.6901 17.1849 13.3274 17.0064 13.9107 16.6495C14.4941 16.2926 14.9694 15.8229 15.3367 15.2404C15.4663 15.046 15.6283 14.8891 15.8228 14.7699C16.0172 14.6506 16.2333 14.5914 16.4709 14.5923H21.0728V2.9256H2.92462V14.5923H7.52648C7.76413 14.5923 7.98018 14.6519 8.17462 14.7712C8.36907 14.8904 8.53111 15.0468 8.66074 15.2404C9.02802 15.8237 9.50333 16.2939 10.0867 16.6508C10.67 17.0077 11.3073 17.1857 11.9987 17.1849Z" fill="black"/>
</svg>
