<svg width="149" height="58" viewBox="0 0 149 58" fill="none" xmlns="http://www.w3.org/2000/svg">
<path d="M1.656 34.6211V17.7011H7.776V19.8611C8.28 18.9491 8.88 18.3251 9.576 17.9891C10.296 17.6531 11.076 17.4851 11.916 17.4851C12.228 17.4851 12.492 17.5091 12.708 17.5571C12.924 17.5811 13.104 17.6291 13.248 17.7011V23.8931C12.888 23.8211 12.516 23.7611 12.132 23.7131C11.772 23.6411 11.4 23.6051 11.016 23.6051C10.2 23.6051 9.516 23.8331 8.964 24.2891C8.412 24.7211 8.136 25.4411 8.136 26.4491V34.6211H1.656ZM23.9794 34.9811C22.1074 34.9811 20.4394 34.6211 18.9754 33.9011C17.5354 33.1571 16.3954 32.1251 15.5554 30.8051C14.7154 29.4611 14.2954 27.9131 14.2954 26.1611C14.2954 24.4091 14.7154 22.8731 15.5554 21.5531C16.3954 20.2331 17.5354 19.2011 18.9754 18.4571C20.4394 17.7131 22.1074 17.3411 23.9794 17.3411C25.8514 17.3411 27.5074 17.7131 28.9474 18.4571C30.4114 19.2011 31.5634 20.2331 32.4034 21.5531C33.2434 22.8731 33.6634 24.4091 33.6634 26.1611C33.6634 27.9131 33.2434 29.4611 32.4034 30.8051C31.5634 32.1251 30.4114 33.1571 28.9474 33.9011C27.5074 34.6211 25.8514 34.9811 23.9794 34.9811ZM24.0154 29.4371C24.6154 29.4371 25.1434 29.3051 25.5994 29.0411C26.0794 28.7771 26.4514 28.4051 26.7154 27.9251C26.9794 27.4211 27.1114 26.8331 27.1114 26.1611C27.1114 25.4891 26.9794 24.9131 26.7154 24.4331C26.4514 23.9291 26.0794 23.5451 25.5994 23.2811C25.1434 23.0171 24.6034 22.8851 23.9794 22.8851C23.3794 22.8851 22.8394 23.0171 22.3594 23.2811C21.8794 23.5451 21.5074 23.9291 21.2434 24.4331C20.9794 24.9131 20.8474 25.4891 20.8474 26.1611C20.8474 26.8331 20.9794 27.4211 21.2434 27.9251C21.5074 28.4051 21.8794 28.7771 22.3594 29.0411C22.8394 29.3051 23.3914 29.4371 24.0154 29.4371ZM44.4578 41.5331C42.8978 41.5331 41.4458 41.3291 40.1018 40.9211C38.7578 40.5131 37.4498 39.8771 36.1778 39.0131L38.0498 34.4051C39.2018 35.0291 40.2818 35.4851 41.2898 35.7731C42.3218 36.0611 43.2578 36.2051 44.0977 36.2051C45.2978 36.2051 46.2578 35.9531 46.9778 35.4491C47.6978 34.9451 48.0578 34.1651 48.0578 33.1091V32.2811C47.5538 32.7851 46.9298 33.1811 46.1858 33.4691C45.4418 33.7571 44.5898 33.9011 43.6298 33.9011C42.2378 33.9011 40.9178 33.5891 39.6698 32.9651C38.4458 32.3171 37.4498 31.3811 36.6818 30.1571C35.9138 28.9091 35.5298 27.3971 35.5298 25.6211C35.5298 23.8211 35.9138 22.3091 36.6818 21.0851C37.4498 19.8611 38.4458 18.9371 39.6698 18.3131C40.9178 17.6651 42.2378 17.3411 43.6298 17.3411C44.7098 17.3411 45.6458 17.5211 46.4378 17.8811C47.2298 18.2411 47.8898 18.7331 48.4178 19.3571V17.7011H54.5378V32.0291C54.5378 34.0931 54.1178 35.8331 53.2778 37.2491C52.4378 38.6651 51.2618 39.7331 49.7498 40.4531C48.2378 41.1731 46.4738 41.5331 44.4578 41.5331ZM45.2138 28.7171C45.8618 28.7171 46.4138 28.5971 46.8698 28.3571C47.3498 28.0931 47.7098 27.7331 47.9498 27.2771C48.2138 26.7971 48.3458 26.2451 48.3458 25.6211C48.3458 24.9731 48.2138 24.4211 47.9498 23.9651C47.7098 23.5091 47.3498 23.1611 46.8698 22.9211C46.4138 22.6571 45.8618 22.5251 45.2138 22.5251C44.5898 22.5251 44.0378 22.6571 43.5578 22.9211C43.0778 23.1611 42.7058 23.5091 42.4418 23.9651C42.2018 24.4211 42.0818 24.9731 42.0818 25.6211C42.0818 26.2451 42.2018 26.7971 42.4418 27.2771C42.7058 27.7331 43.0778 28.0931 43.5578 28.3571C44.0378 28.5971 44.5898 28.7171 45.2138 28.7171ZM67.1237 34.9811C65.3477 34.9811 63.6917 34.6691 62.1557 34.0451C60.6437 33.4211 59.4197 32.4611 58.4837 31.1651C57.5717 29.8451 57.1157 28.1771 57.1157 26.1611C57.1157 24.3611 57.5237 22.8011 58.3397 21.4811C59.1797 20.1611 60.2957 19.1411 61.6877 18.4211C63.1037 17.7011 64.6877 17.3411 66.4397 17.3411C68.1917 17.3411 69.7397 17.6531 71.0837 18.2771C72.4277 18.9011 73.4837 19.7651 74.2517 20.8691C75.0197 21.9731 75.4037 23.2691 75.4037 24.7571C75.4037 25.2371 75.3317 25.7531 75.1877 26.3051C75.0677 26.8571 74.9117 27.3371 74.7197 27.7451H63.6677C63.7877 28.2251 64.0157 28.6331 64.3517 28.9691C64.7117 29.2811 65.1797 29.5211 65.7557 29.6891C66.3557 29.8331 67.0517 29.9051 67.8437 29.9051C68.7557 29.9051 69.6437 29.7731 70.5077 29.5091C71.3717 29.2451 72.1757 28.9211 72.9197 28.5371L74.6837 32.8571C73.6037 33.5531 72.4157 34.0811 71.1197 34.4411C69.8237 34.8011 68.4917 34.9811 67.1237 34.9811ZM63.6677 23.9291H68.7797C68.8037 23.8571 68.8157 23.7971 68.8157 23.7491C68.8397 23.6771 68.8517 23.6171 68.8517 23.5691C68.8517 23.2811 68.7677 23.0291 68.5997 22.8131C68.4317 22.5731 68.1797 22.3931 67.8437 22.2731C67.5317 22.1291 67.1117 22.0571 66.5837 22.0571C66.0317 22.0571 65.5517 22.1411 65.1437 22.3091C64.7357 22.4771 64.4117 22.7051 64.1717 22.9931C63.9317 23.2811 63.7637 23.5931 63.6677 23.9291ZM77.9802 34.6211V17.7011H84.1002V19.8611C84.6042 18.9491 85.2042 18.3251 85.9002 17.9891C86.6202 17.6531 87.4002 17.4851 88.2402 17.4851C88.5522 17.4851 88.8162 17.5091 89.0322 17.5571C89.2482 17.5811 89.4282 17.6291 89.5722 17.7011V23.8931C89.2122 23.8211 88.8402 23.7611 88.4562 23.7131C88.0962 23.6411 87.7242 23.6051 87.3402 23.6051C86.5242 23.6051 85.8402 23.8331 85.2882 24.2891C84.7362 24.7211 84.4602 25.4411 84.4602 26.4491V34.6211H77.9802Z" fill="#121212"/>
<path d="M95.1186 35.4956C95.1333 35.655 95.093 35.7993 94.9978 35.9285C94.9026 36.0578 94.7784 36.163 94.6252 36.2441C94.4081 36.3578 94.0274 36.5135 93.4833 36.7109C92.9391 36.9084 92.2773 37.1368 91.4978 37.3961C90.7316 37.6542 89.9062 37.9245 89.0218 38.2069C88.1361 38.476 87.2498 38.7385 86.3628 38.9944C86.1352 40.3008 85.9045 41.6477 85.6709 43.035C85.4361 44.409 85.1994 45.7631 84.961 47.0973C84.871 47.5743 84.7442 47.9408 84.5803 48.1969C84.4177 48.4663 84.1107 48.6219 83.6593 48.6635C83.168 48.7088 82.8214 48.5801 82.6194 48.2773C82.4319 47.9866 82.3734 47.5703 82.444 47.0282C82.6557 45.5491 82.8501 44.1721 83.0271 42.8972C83.2174 41.621 83.37 40.5893 83.4848 39.8021C82.7005 40.0083 82.0132 40.1788 81.4231 40.3135C80.8318 40.435 80.4093 40.5007 80.1559 40.5107C79.8746 40.5099 79.6318 40.4185 79.4276 40.2364C79.2233 40.0544 79.1144 39.8168 79.1007 39.5234C79.1028 39.2555 79.2015 39.0187 79.3968 38.8133C79.5908 38.5945 79.8321 38.4518 80.1205 38.385C80.5284 38.3072 81.054 38.1985 81.6972 38.0588C82.3405 37.9192 83.0488 37.7601 83.8224 37.5817C83.9326 36.8886 84.0674 36.1732 84.227 35.4355C84.3854 34.6844 84.5535 33.9659 84.7312 33.2801C84.9211 32.5797 85.1056 31.9668 85.2848 31.4415C85.4639 30.9161 85.6361 30.532 85.8011 30.2892C85.9313 30.1031 86.0983 29.9538 86.3021 29.8413C86.5193 29.7275 86.7341 29.6609 86.9465 29.6413C87.2253 29.6156 87.4602 29.6943 87.6512 29.8776C87.8421 30.0608 87.9499 30.2852 87.9743 30.5507C87.9841 30.657 87.9879 30.7704 87.9856 30.8911C87.9822 30.9986 87.9654 31.1072 87.9354 31.2171C87.7443 31.9042 87.5462 32.7326 87.341 33.7022C87.1491 34.6706 86.9525 35.7331 86.7512 36.8898C87.7335 36.652 88.6959 36.4159 89.6384 36.1817C90.5929 35.933 91.4558 35.7062 92.2269 35.5012C93.01 35.2817 93.6357 35.0968 94.1039 34.9465C94.3608 34.8291 94.5884 34.8282 94.7865 34.9438C94.9834 35.0461 95.0941 35.2301 95.1186 35.4956ZM94.7074 47.2229C94.0967 47.2792 93.6426 47.147 93.3452 46.8263C93.0479 46.5056 92.8686 46.0133 92.8074 45.3495C92.751 44.7387 92.7904 43.9317 92.9255 42.9284C93.0727 41.9106 93.2825 40.7732 93.5549 39.5162C93.8393 38.2447 94.1672 36.9357 94.5385 35.5893C94.9085 34.2296 95.3009 32.8946 95.7157 31.5843C96.1292 30.2607 96.5393 29.0446 96.9459 27.9359C97.142 27.4492 97.3649 27.1073 97.6145 26.9102C97.8642 26.7131 98.1483 26.5999 98.4669 26.5705C98.7723 26.5423 99.0392 26.6047 99.2675 26.7578C99.4946 26.8975 99.6247 27.1466 99.6578 27.5051C99.6651 27.5847 99.5871 27.8999 99.4236 28.4506C99.2589 28.988 99.0426 29.6908 98.7745 30.5591C98.5052 31.4141 98.2125 32.3784 97.8964 33.4519C97.5791 34.5122 97.266 35.619 96.9573 36.7722C96.6473 37.9121 96.376 39.0351 96.1432 40.1412C95.9105 41.2472 95.7367 42.2675 95.6221 43.202C96.0292 42.5351 96.4634 41.7988 96.9247 40.993C97.3981 40.1727 97.8787 39.3585 98.3665 38.5503C98.8664 37.7276 99.3592 36.9725 99.8448 36.285C100.344 35.5963 100.814 35.0374 101.257 34.6083C101.699 34.1792 102.1 33.9481 102.458 33.915C103.122 33.8538 103.67 33.9907 104.103 34.3257C104.547 34.6463 104.811 35.2513 104.893 36.1409C104.931 36.5524 104.897 37.0577 104.792 37.6566C104.685 38.2422 104.548 38.864 104.381 39.5221C104.226 40.1657 104.096 40.787 103.991 41.3859C103.885 41.9847 103.853 42.5033 103.893 42.9414C103.915 43.1804 104.039 43.2895 104.265 43.2687C104.915 43.2087 105.56 43.0087 106.198 42.6686C106.849 42.3274 107.461 41.9228 108.034 41.4549C108.619 40.9725 109.145 40.5022 109.611 40.0441C110.09 39.5715 110.476 39.1811 110.769 38.8729C110.975 38.6396 111.168 38.4813 111.347 38.3977C111.526 38.3009 111.695 38.2452 111.854 38.2305C112.398 38.1803 112.696 38.4274 112.746 38.9717C112.756 39.0779 112.748 39.2126 112.723 39.3756C112.697 39.5253 112.588 39.7228 112.396 39.9681C112.204 40.2134 111.915 40.5614 111.528 41.0122C111.141 41.4629 110.684 41.947 110.156 42.4643C109.641 42.9804 109.071 43.4815 108.447 43.9676C107.834 44.4392 107.195 44.8396 106.529 45.1688C105.863 45.498 105.205 45.6926 104.554 45.7526C103.571 45.8432 102.789 45.6341 102.206 45.1255C101.625 44.6301 101.291 43.9111 101.204 42.9684C101.144 42.3178 101.202 41.4891 101.377 40.4821C101.55 39.4618 101.755 38.4186 101.992 37.3524C101.569 37.8466 101.134 38.429 100.687 39.0996C100.239 39.7568 99.7874 40.4545 99.3332 41.1927C98.8779 41.9176 98.4285 42.6352 97.9852 43.3456C97.554 44.0414 97.1377 44.6824 96.7365 45.2684C96.3341 45.8411 95.9617 46.3039 95.6193 46.6568C95.2769 47.0097 94.9729 47.1984 94.7074 47.2229ZM112.639 44.7661C112.214 44.8053 111.818 44.7213 111.45 44.5141C111.084 44.3202 110.785 44.0466 110.551 43.6932C110.317 43.3265 110.179 42.9241 110.139 42.486C110.063 41.6628 110.168 40.843 110.454 40.0266C110.754 39.209 111.17 38.4208 111.702 37.662C112.235 36.9033 112.826 36.1993 113.476 35.5503C114.138 34.8867 114.801 34.31 115.465 33.8203C116.143 33.3293 116.763 32.9374 117.325 32.6445C117.901 32.3504 118.354 32.1881 118.686 32.1575C119.071 32.122 119.391 32.1795 119.646 32.3301C119.913 32.4661 120.063 32.7068 120.094 33.052C120.104 33.1582 120.086 33.2469 120.039 33.3182C120.215 33.3421 120.363 33.4289 120.484 33.5784C120.605 33.7279 120.68 33.962 120.71 34.2807C120.722 34.4134 120.721 34.7617 120.706 35.3254C120.691 35.8892 120.68 36.5731 120.674 37.377C120.681 38.1798 120.724 39.0126 120.804 39.8756C120.816 40.0084 120.847 40.1261 120.897 40.2286C120.945 40.3179 121.036 40.3564 121.169 40.3442C121.7 40.2952 122.228 40.1394 122.752 39.8768C123.289 39.5996 123.802 39.2779 124.29 38.9115C124.791 38.5306 125.239 38.1612 125.634 37.8034C126.042 37.4311 126.382 37.1252 126.654 36.8858C126.939 36.632 127.127 36.5008 127.22 36.4922C127.672 36.4506 127.918 36.6555 127.96 37.1069C127.971 37.2264 127.848 37.4921 127.592 37.9041C127.347 38.3015 127.002 38.7685 126.556 39.3051C126.109 39.8284 125.602 40.3571 125.035 40.8914C124.48 41.4112 123.892 41.8538 123.27 42.2192C122.66 42.5833 122.057 42.7929 121.46 42.848C120.729 42.9153 120.156 42.7942 119.739 42.4845C119.335 42.1735 119.027 41.7333 118.814 41.1638C118.613 40.5798 118.471 39.9167 118.389 39.1744C117.802 40.2061 117.178 41.134 116.517 41.9581C115.869 42.7677 115.213 43.424 114.55 43.9271C113.886 44.4301 113.249 44.7098 112.639 44.7661ZM118.769 34.1383C117.525 34.8823 116.423 35.707 115.462 36.6124C114.5 37.5045 113.754 38.4169 113.224 39.3495C112.707 40.2808 112.486 41.1515 112.561 41.9614C112.581 42.1871 112.698 42.2901 112.911 42.2706C113.163 42.2473 113.481 42.0706 113.866 41.7406C114.264 41.4093 114.686 40.9821 115.134 40.4588C115.579 39.9222 116.021 39.3326 116.457 38.6898C116.892 38.0338 117.292 37.3675 117.658 36.691C118.024 36.0146 118.307 35.3726 118.505 34.7652C118.578 34.5442 118.666 34.3352 118.769 34.1383ZM140.201 31.3385C140.215 31.4979 140.175 31.6422 140.08 31.7714C139.985 31.9007 139.861 32.0059 139.707 32.087C139.49 32.2007 139.11 32.3564 138.565 32.5538C138.021 32.7513 137.359 32.9797 136.58 33.239C135.814 33.4971 134.988 33.7674 134.104 34.0498C133.218 34.3189 132.332 34.5814 131.445 34.8373C131.217 36.1437 130.987 37.4906 130.753 38.8779C130.518 40.2519 130.282 41.606 130.043 42.9402C129.953 43.4172 129.826 43.7837 129.662 44.0398C129.5 44.3092 129.193 44.4647 128.741 44.5064C128.25 44.5517 127.904 44.423 127.702 44.1202C127.514 43.8295 127.456 43.4132 127.526 42.8711C127.738 41.392 127.932 40.015 128.109 38.7401C128.3 37.4639 128.452 36.4322 128.567 35.645C127.783 35.8512 127.095 36.0217 126.505 36.1564C125.914 36.2779 125.492 36.3436 125.238 36.3536C124.957 36.3528 124.714 36.2613 124.51 36.0793C124.306 35.8973 124.197 35.6597 124.183 35.3663C124.185 35.0983 124.284 34.8616 124.479 34.6562C124.673 34.4374 124.914 34.2947 125.203 34.2279C125.611 34.1501 126.136 34.0414 126.779 33.9017C127.423 33.7621 128.131 33.603 128.905 33.4246C129.015 32.7315 129.15 32.0161 129.309 31.2784C129.468 30.5273 129.636 29.8088 129.813 29.123C130.003 28.4226 130.188 27.8097 130.367 27.2844C130.546 26.759 130.718 26.3749 130.883 26.1321C131.013 25.946 131.18 25.7967 131.384 25.6842C131.601 25.5704 131.816 25.5038 132.029 25.4842C132.307 25.4585 132.542 25.5372 132.733 25.7205C132.924 25.9037 133.032 26.1281 133.057 26.3936C133.066 26.4999 133.07 26.6133 133.068 26.734C133.064 26.8415 133.048 26.9501 133.018 27.06C132.826 27.7471 132.628 28.5755 132.423 29.5451C132.231 30.5135 132.035 31.576 131.833 32.7327C132.816 32.4949 133.778 32.2588 134.721 32.0246C135.675 31.7759 136.538 31.5491 137.309 31.3441C138.092 31.1246 138.718 30.9397 139.186 30.7894C139.443 30.672 139.671 30.6711 139.869 30.7867C140.066 30.889 140.176 31.073 140.201 31.3385ZM141.605 36.7525C141.419 36.7696 141.246 36.7119 141.086 36.5793C140.939 36.4323 140.846 36.1529 140.808 35.7413C140.781 35.4492 140.792 34.9863 140.841 34.3525C140.89 33.7187 140.97 32.9882 141.081 32.1612C141.204 31.3197 141.351 30.4425 141.521 29.5297C141.69 28.6036 141.881 27.6955 142.093 26.8056C142.305 25.9024 142.53 25.0849 142.771 24.353C142.885 23.9943 143.087 23.7146 143.376 23.5139C143.678 23.2986 144.015 23.1738 144.386 23.1396C144.771 23.1041 145.067 23.2576 145.272 23.6001C145.478 23.9427 145.6 24.3264 145.64 24.7513C145.654 24.9106 145.602 25.2167 145.483 25.6695C145.378 26.1211 145.227 26.6706 145.033 27.3179C144.838 27.9651 144.622 28.668 144.384 29.4264C144.158 30.1703 143.926 30.928 143.689 31.6997C143.465 32.4569 143.257 33.179 143.066 33.8661C142.875 34.5532 142.723 35.1564 142.61 35.6756C142.537 36.0439 142.414 36.3096 142.242 36.4728C142.082 36.6348 141.87 36.728 141.605 36.7525ZM141.081 42.4044C140.922 42.4191 140.732 42.3964 140.513 42.3363C140.293 42.2763 140.089 42.1009 139.902 41.8102C139.729 41.5316 139.612 41.067 139.552 40.4164C139.506 39.9119 139.63 39.5122 139.924 39.2172C140.218 38.9223 140.631 38.7504 141.162 38.7014C141.613 38.6598 141.97 38.7541 142.232 38.9843C142.508 39.2133 142.667 39.5601 142.71 40.0248C142.749 40.4497 142.678 40.8379 142.496 41.1894C142.327 41.5397 142.105 41.8213 141.83 42.0341C141.57 42.2589 141.32 42.3824 141.081 42.4044Z" fill="#665CEE"/>
</svg>
